<svg width="142px" height="77px" viewBox="0 0 142 77" version="1.1" xmlns="http://www.w3.org/2000/svg" xmlns:xlink="http://www.w3.org/1999/xlink">
    <defs>
        <polygon id="path-1" points="0.06 0.407 141.73288 0.407 141.73288 44.337 0.06 44.337"></polygon>
        <path d="M0.948,8.823 L0.948,8.823 C1.827,6.925 3.518,5.58 3.979,5.21 C4.498,4.795 7.67,2.236 14.217,0.746 C14.225,0.744 14.232,0.743 14.24,0.741 C14.232,0.743 14.225,0.744 14.217,0.746 C7.67,2.236 4.498,4.795 3.979,5.21 C3.518,5.58 1.827,6.925 0.948,8.823" id="path-3"></path>
        <path d="M0.286,0.689 C1.067,0.591 1.826,0.509 2.558,0.44 L2.558,0.441 C1.826,0.509 1.067,0.591 0.286,0.689" id="path-5"></path>
        <path d="M0.656,20.572 C1.191,18.718 1.502,17.223 1.954,15.089 C2.419,12.893 3.314,10.189 4.186,8.797 C5.059,7.405 6.268,5.806 9.087,4.208 C11.946,2.586 15.91,1.585 20.157,1.051 C20.923,0.955 21.747,0.873 22.59,0.805 L22.558,10.44 C21.826,10.509 21.067,10.591 20.286,10.689 C18.369,10.929 16.324,11.267 14.24,11.741 C14.232,11.743 14.225,11.744 14.217,11.746 C7.67,13.236 4.498,15.795 3.979,16.21 C3.518,16.58 1.827,17.925 0.948,19.823 C0.836,20.064 0.737,20.314 0.656,20.572" id="path-7"></path>
        <path d="M10.677,7.708 L10.677,7.708 C10.788,7.667 10.899,7.625 11.01,7.582 C14.018,6.424 16.101,4.96 17.505,3.443 C16.101,4.96 14.018,6.424 11.01,7.582 C10.899,7.625 10.788,7.667 10.677,7.708 M0.389,0.28 L0.389,0.28 C0.645,0.265 0.908,0.248 1.177,0.23 C0.908,0.248 0.645,0.265 0.389,0.28" id="path-9"></path>
        <path d="M0.387,18.83 L0.389,9.28 C0.645,9.265 0.908,9.248 1.177,9.23 C1.728,9.192 2.304,9.148 2.906,9.096 C8.206,8.639 13.02,7.626 16.384,5.586 C19.253,3.845 19.926,1.923 19.926,0.862 C19.926,0.73 19.915,0.612 19.897,0.509 C20.38,1.978 20.5760007,3.337 20.5760007,4.574 C20.577,7.49 19.498,9.724 18.565,11.11 C18.265,11.554 17.914,12.001 17.505,12.443 C16.101,13.96 14.018,15.424 11.01,16.582 C10.899,16.625 10.788,16.667 10.677,16.708 C6.908,18.103 3.218,18.547 0.539,18.815 L0.438,18.825 C0.421,18.826 0.404,18.828 0.387,18.83" id="path-11"></path>
        <polygon id="path-13" points="0.06 0.159 14.908 0.159 14.908 11.026 0.06 11.026"></polygon>
        <polygon id="path-15" points="0.999 0.837 26.08 0.837 26.08 20.94 0.999 20.94"></polygon>
    </defs>
    <g id="Page-1" stroke="none" stroke-width="1" fill="none" fill-rule="evenodd">
        <g id="CABA-LOGO-2015-S-RGB">
            <g id="Group-5">
                <mask id="mask-2" fill="white">
                    <use xlink:href="#path-1"></use>
                </mask>
                <g id="Clip-2"></g>
                <path d="M116.224,27.983 C118.662,21.464 121.008,15.173 121.008,15.173 L126.324,27.994 L116.224,27.983 Z M141.56,42.071 C140.894,40.585 126.74,6.9 125.83,4.999 C124.151,1.495 123.634,0.901 121.008,0.901 C117.797,0.901 117.604,2.147 116.367,4.858 C115.584,6.572 100.589,42.071 100.589,42.071 C100.589,42.071 99.991,43.8 101.968,43.924 C103.947,44.047 108.645,43.924 108.645,43.924 C108.645,43.924 110.252,43.677 110.871,42.193 C111.077,41.696 112.281,38.506 113.793,34.478 L128.384,34.481 C128.384,34.481 131.005,41.127 131.508,42.071 C132.055,43.093 132.381,43.8 133.741,43.924 C135.101,44.047 140.753,43.924 140.753,43.924 C140.753,43.924 142.226,43.552 141.56,42.071 L141.56,42.071 Z" id="Fill-1" fill="#418FC1" mask="url(#mask-2)"></path>
                <path d="M93.936,30.968 C93.936,35.614 89.692,36.601 85.915,36.601 L81.905,36.601 L81.905,25.218 L86.095,25.218 C89.809,25.218 93.936,26.608 93.936,30.968 M91.379,13.124 C91.379,15.161 90.401,16.354 89.011,17.027 C87.826,17.592 86.544,19.036 85.126,19.036 L81.905,19.906 L81.905,8.477 L85.216,8.477 C88.302,8.477 91.379,9.518 91.379,13.124 M101.903,31.256 C101.903,25.909 99.516,22.364 94.52,20.562 C97.713,18.758 99.346,16.084 99.346,12.37 C99.346,9.463 97.892,6.27 95.676,4.35 C92.196,1.21 87.656,1.039 83.243,1.039 C83.243,1.039 79.573,0.95 76.577,1.039 C73.571,1.12 73.948,3.704 73.948,3.704 L73.948,41.097 C73.948,41.097 73.66,44.039 77.519,44.039 C81.376,44.039 85.449,44.039 85.449,44.039 C89.109,44.039 93.469,43.582 96.556,41.483 C99.982,39.16 101.903,35.446 101.903,31.256" id="Fill-3" fill="#418FC1" mask="url(#mask-2)"></path>
                <path d="M0,22.262 C0,37.429 11.329,44.337 21.855,44.337 C24.578,44.337 26.353,44.004 27.775,43.593 C28.167,43.482 28.036,43.496 28.352,43.369 C28.352,43.369 29.579,42.783 29.598,40.805 C29.616,38.827 29.598,39.828 29.598,36.011 C29.598,32.592 27.693,34.157 27.693,34.157 C27.157,34.559 27.091,34.647 26.347,34.92 C25.024,35.401 23.419,35.664 21.691,35.664 C14.435,35.664 9.169,30.096 9.169,22.427 C9.169,14.568 14.408,9.081 21.911,9.081 C23.995,9.081 25.848,9.591 27.156,10.18 C27.615,10.386 27.471,10.346 27.767,10.494 C27.767,10.494 29.597,11.484 29.598,8.769 C29.599,5.483 29.595,5.703 29.598,3.813 C29.6,1.763 27.791,1.148 27.791,1.148 C27.61,1.092 27.874,1.165 27.385,1.028 C25.753,0.572 23.946,0.407 21.855,0.407 C10.995,0.407 0,7.915 0,22.262" id="Fill-4" fill="#418FC1" mask="url(#mask-2)"></path>
            </g>
            <path d="M58.795,34.485 C58.795,34.485 61.415,41.124 61.926,42.067 C62.473,43.089 62.796,43.797 64.151,43.922 C65.514,44.049 71.167,43.922 71.167,43.922 C71.167,43.922 72.637,43.554 71.974,42.067 C71.31,40.585 57.153,6.898 56.247,4.996 C54.569,1.497 54.049,0.905 51.42,0.905 C48.209,0.905 48.02,2.143 46.782,4.861 C46.002,6.575 31.001,42.067 31.001,42.067 C31.001,42.067 30.4,43.797 32.383,43.922 C34.357,44.049 39.058,43.922 39.058,43.922 C39.058,43.922 40.663,43.681 41.283,42.191 C41.902,40.712 51.42,15.169 51.42,15.169 L56.74,27.99 L56.498,28.017 L58.795,34.485" id="Fill-6" fill="#418FC1"></path>
            <path d="M42.656,38.572 C43.377,36.282 45.459,34.627 45.979,34.21 C46.498,33.795 49.67,31.236 56.217,29.746 C62.706,28.27 68.827,28.105 71.834,28.105 C73.848,28.105 76.787,28.089 79.539,27.815 C82.297,27.54 86.127,27.077 90.01,25.582 C93.893,24.087 96.235,22.082 97.565,20.11 C98.894,18.137 100.52,14.441 98.897,9.509 C99.06,10.443 98.609,12.63 95.384,14.586 C92.02,16.626 87.206,17.639 81.906,18.096 C77.652,18.463 74.638,18.449 73.433,18.449 C72.228,18.449 66.335,18.525 62.157,19.051 C57.91,19.585 53.946,20.586 51.087,22.208 C48.268,23.806 47.059,25.405 46.186,26.797 C45.314,28.189 44.419,30.893 43.954,33.089 C43.502,35.223 43.191,36.718 42.656,38.572" id="Fill-7" fill="#C3CD34"></path>
            <g id="Group-10" transform="translate(42.000000, 29.000000)">
                <mask id="mask-4" fill="white">
                    <use xlink:href="#path-3"></use>
                </mask>
                <g id="Clip-9"></g>
                <path d="M0.948,8.823 L0.948,8.823 C1.827,6.925 3.518,5.58 3.979,5.21 C4.498,4.795 7.67,2.236 14.217,0.746 C14.225,0.744 14.232,0.743 14.24,0.741 C14.232,0.743 14.225,0.744 14.217,0.746 C7.67,2.236 4.498,4.795 3.979,5.21 C3.518,5.58 1.827,6.925 0.948,8.823" id="Fill-8" mask="url(#mask-4)"></path>
            </g>
            <g id="Group-13" transform="translate(62.000000, 28.000000)">
                <mask id="mask-6" fill="white">
                    <use xlink:href="#path-5"></use>
                </mask>
                <g id="Clip-12"></g>
                <path d="M0.286,0.689 C1.067,0.591 1.826,0.509 2.558,0.44 L2.558,0.441 C1.826,0.509 1.067,0.591 0.286,0.689" id="Fill-11" mask="url(#mask-6)"></path>
            </g>
            <g id="Group-16" transform="translate(42.000000, 18.000000)">
                <mask id="mask-8" fill="white">
                    <use xlink:href="#path-7"></use>
                </mask>
                <g id="Clip-15"></g>
                <path d="M0.656,20.572 C1.191,18.718 1.502,17.223 1.954,15.089 C2.419,12.893 3.314,10.189 4.186,8.797 C5.059,7.405 6.268,5.806 9.087,4.208 C11.946,2.586 15.91,1.585 20.157,1.051 C20.923,0.955 21.747,0.873 22.59,0.805 L22.558,10.44 C21.826,10.509 21.067,10.591 20.286,10.689 C18.369,10.929 16.324,11.267 14.24,11.741 C14.232,11.743 14.225,11.744 14.217,11.746 C7.67,13.236 4.498,15.795 3.979,16.21 C3.518,16.58 1.827,17.925 0.948,19.823 C0.836,20.064 0.737,20.314 0.656,20.572" id="Fill-14" mask="url(#mask-8)"></path>
            </g>
            <g id="Group-19" transform="translate(79.000000, 18.000000)">
                <mask id="mask-10" fill="white">
                    <use xlink:href="#path-9"></use>
                </mask>
                <g id="Clip-18"></g>
                <path d="M10.677,7.708 L10.677,7.708 C10.788,7.667 10.899,7.625 11.01,7.582 C14.018,6.424 16.101,4.96 17.505,3.443 C16.101,4.96 14.018,6.424 11.01,7.582 C10.899,7.625 10.788,7.667 10.677,7.708 M0.389,0.28 L0.389,0.28 C0.645,0.265 0.908,0.248 1.177,0.23 C0.908,0.248 0.645,0.265 0.389,0.28" id="Fill-17" mask="url(#mask-10)"></path>
            </g>
            <g id="Group-22" transform="translate(79.000000, 9.000000)">
                <mask id="mask-12" fill="white">
                    <use xlink:href="#path-11"></use>
                </mask>
                <g id="Clip-21"></g>
                <path d="M0.387,18.83 L0.389,9.28 C0.645,9.265 0.908,9.248 1.177,9.23 C1.728,9.192 2.304,9.148 2.906,9.096 C8.206,8.639 13.02,7.626 16.384,5.586 C19.253,3.845 19.926,1.923 19.926,0.862 C19.926,0.73 19.915,0.612 19.897,0.509 C20.38,1.978 20.5760007,3.337 20.5760007,4.574 C20.577,7.49 19.498,9.724 18.565,11.11 C18.265,11.554 17.914,12.001 17.505,12.443 C16.101,13.96 14.018,15.424 11.01,16.582 C10.899,16.625 10.788,16.667 10.677,16.708 C6.908,18.103 3.218,18.547 0.539,18.815 L0.438,18.825 C0.421,18.826 0.404,18.828 0.387,18.83" id="Fill-20" mask="url(#mask-12)"></path>
            </g>
            <g id="Group-25" transform="translate(0.000000, 62.000000)">
                <mask id="mask-14" fill="white">
                    <use xlink:href="#path-13"></use>
                </mask>
                <g id="Clip-24"></g>
                <polyline id="Fill-23" fill="#418FC1" mask="url(#mask-14)" points="11.384 11.026 10.126 11.026 7.455 2.314 4.76 11.026 3.525 11.026 0 0.428 1.437 0.159 4.176 8.983 6.825 0.294 8.128 0.294 10.777 8.983 13.427 0.338 14.908 0.338 11.384 11.026"></polyline>
            </g>
            <path d="M17.514,72.958 L18.974,72.958 L18.974,62.338 L17.514,62.338 L17.514,72.958 Z M18.256,59.801 C17.672,59.801 17.177,59.307 17.177,58.724 C17.177,58.14 17.672,57.646 18.256,57.646 C18.839,57.646 19.311,58.14 19.311,58.724 C19.311,59.307 18.839,59.801 18.256,59.801 L18.256,59.801 Z" id="Fill-26" fill="#418FC1"></path>
            <path d="M25.868,73.138 C24.206,73.138 23.106,72.487 23.106,70.534 L23.106,63.596 L21.467,63.596 L21.467,62.338 L23.106,62.338 L23.106,58.656 L24.565,58.409 L24.565,62.338 L27.012,62.338 L27.215,63.596 L24.565,63.596 L24.565,70.286 C24.565,71.364 24.992,71.836 26.137,71.836 C26.474,71.836 26.878,71.768 27.125,71.723 L27.349,72.958 C27.035,73.048 26.497,73.138 25.868,73.138" id="Fill-27" fill="#418FC1"></path>
            <g id="Group-31" transform="translate(29.000000, 56.000000)">
                <mask id="mask-16" fill="white">
                    <use xlink:href="#path-15"></use>
                </mask>
                <g id="Clip-29"></g>
                <path d="M7.892,16.958 L7.892,9.639 C7.892,8.269 7.264,7.438 5.917,7.438 C4.793,7.438 3.648,8.135 2.481,9.279 L2.481,16.958 L0.999,16.958 L0.999,1.107 L2.481,0.837 L2.481,7.842 C3.581,6.877 4.771,6.114 6.208,6.114 C8.319,6.114 9.374,7.326 9.374,9.347 L9.374,16.958 L7.892,16.958" id="Fill-28" fill="#418FC1" mask="url(#mask-16)"></path>
                <path d="M21.589,18.283 C20.826,20.349 19.883,21 18.312,21 C18.087,21 17.885,20.955 17.728,20.933 L17.525,19.631 C17.75,19.675 18.065,19.72 18.402,19.72 C19.277,19.72 19.794,19.338 20.197,18.306 L20.691,17.026 L16.673,6.473 L18.11,6.204 L21.41,15.252 L24.553,6.338 L26.08,6.338 L21.589,18.283" id="Fill-30" fill="#418FC1" mask="url(#mask-16)"></path>
            </g>
            <path d="M61.278,63.371 C59.168,63.371 58.023,65.145 58.023,67.66 C58.023,70.107 59.19,71.926 61.278,71.926 C63.434,71.926 64.579,70.174 64.579,67.66 C64.579,65.212 63.411,63.371 61.278,63.371 Z M61.278,73.183 C58.561,73.183 56.519,71.162 56.519,67.66 C56.519,64.135 58.606,62.114 61.278,62.114 C64.04,62.114 66.106,64.135 66.106,67.66 C66.106,71.162 63.995,73.183 61.278,73.183 L61.278,73.183 Z" id="Fill-32" fill="#418FC1"></path>
            <path d="M76.053,72.958 L75.806,71.387 C74.639,72.42 73.426,73.183 71.989,73.183 C69.856,73.183 68.823,71.948 68.823,69.927 L68.823,62.338 L70.305,62.338 L70.305,69.658 C70.305,71.027 70.933,71.836 72.28,71.836 C73.404,71.836 74.549,71.162 75.716,70.017 L75.716,62.338 L77.198,62.338 L77.198,72.958 L76.053,72.958" id="Fill-33" fill="#418FC1"></path>
            <path d="M89.302,58.252 C88.291,58.252 87.685,58.701 87.685,59.868 L87.685,62.338 L89.863,62.338 L90.065,63.596 L87.685,63.596 L87.685,72.958 L86.226,72.958 L86.226,63.596 L84.609,63.596 L84.609,62.338 L86.226,62.338 L86.226,59.756 C86.226,57.803 87.393,56.905 89.212,56.905 C89.594,56.905 89.773,56.927 89.975,56.95 L90.2,58.319 C89.997,58.274 89.706,58.252 89.302,58.252" id="Fill-34" fill="#418FC1"></path>
            <path d="M96.218,63.371 C94.107,63.371 92.962,65.145 92.962,67.66 C92.962,70.107 94.129,71.926 96.218,71.926 C98.373,71.926 99.518,70.174 99.518,67.66 C99.518,65.212 98.35,63.371 96.218,63.371 Z M96.218,73.183 C93.501,73.183 91.457,71.162 91.457,67.66 C91.457,64.135 93.546,62.114 96.218,62.114 C98.98,62.114 101.045,64.135 101.045,67.66 C101.045,71.162 98.935,73.183 96.218,73.183 L96.218,73.183 Z" id="Fill-35" fill="#418FC1"></path>
            <path d="M105.334,66.29 L105.334,72.958 L103.852,72.958 L103.852,62.338 L104.952,62.338 L105.289,64.516 C106.076,63.326 107.31,62.159 109.062,62.114 L109.308,63.506 C107.557,63.618 106.053,64.875 105.334,66.29" id="Fill-36" fill="#418FC1"></path>
            <polyline id="Fill-37" fill="#418FC1" points="116.696 72.958 116.696 57.107 118.156 56.837 118.156 72.958 116.696 72.958"></polyline>
            <path d="M121.951,72.958 L123.411,72.958 L123.411,62.338 L121.951,62.338 L121.951,72.958 Z M122.692,59.801 C122.109,59.801 121.614,59.307 121.614,58.724 C121.614,58.14 122.109,57.646 122.692,57.646 C123.276,57.646 123.748,58.14 123.748,58.724 C123.748,59.307 123.276,59.801 122.692,59.801 L122.692,59.801 Z" id="Fill-38" fill="#418FC1"></path>
            <path d="M130.708,58.252 C129.697,58.252 129.091,58.701 129.091,59.868 L129.091,62.338 L131.269,62.338 L131.471,63.596 L129.091,63.596 L129.091,72.958 L127.632,72.958 L127.632,63.596 L126.015,63.596 L126.015,62.338 L127.632,62.338 L127.632,59.756 C127.632,57.803 128.799,56.905 130.618,56.905 C131,56.905 131.179,56.927 131.381,56.95 L131.606,58.319 C131.403,58.274 131.112,58.252 130.708,58.252" id="Fill-39" fill="#418FC1"></path>
            <path d="M137.444,63.304 C135.782,63.304 134.705,64.539 134.413,66.582 L140.206,66.582 C140.048,64.673 139.151,63.304 137.444,63.304 Z M141.733,67.749 L134.345,67.749 C134.39,70.354 135.603,71.903 137.736,71.903 C139.151,71.903 140.386,71.275 141.485,70.331 L141.71,71.679 C140.655,72.577 139.285,73.183 137.646,73.183 C134.862,73.183 132.863,71.297 132.863,67.637 C132.863,64.224 134.84,62.114 137.444,62.114 C140.341,62.114 141.733,64.494 141.733,67.435 C141.733,67.525 141.733,67.637 141.733,67.749 L141.733,67.749 Z" id="Fill-40" fill="#418FC1"></path>
        </g>
    </g>
</svg>
