<?xml version="1.0" encoding="utf-8"?>
<svg version="1.1" xmlns="http://www.w3.org/2000/svg" xmlns:xlink="http://www.w3.org/1999/xlink" x="0px" y="0px"
	 width="620px" height="420px" viewBox="752 -496 620 420" enable-background="new 752 -496 620 420" xml:space="preserve">
	<path fill="#414141" d="M937.6-329.8c7.5,0,13.3,7.9,13.3,17.9c0,10-5.8,17.9-13.3,17.9c-7.5,0-13.3-7.9-13.3-17.9
		C923.9-321.9,930.2-329.8,937.6-329.8z M870.4-329.8c7.5,0,13.3,7.9,13.3,17.9c0,10-5.8,17.9-13.3,17.9c-7.5,0-13.3-7.9-13.3-17.9
		C857.1-321.9,862.9-329.8,870.4-329.8z M1023.2-402.9c-7.1-17-16.6-32-29.1-44.8c-12.5-12.5-27-22.4-44.4-29.9
		c-17.4-7.1-36.1-10.8-56.9-10.8s-39.5,3.7-56.9,10.8c-17.4,7.5-32,17.4-44.4,30.3c-12.5,12.5-22,27.4-29.1,44.8
		c-7.1,17-10.4,35.7-10.4,55.6s3.3,38.6,10.4,55.6s16.6,32,29.1,44.8c5,5.4,10.8,10,17,14.5v-123.3h71v-71.4l35.7,71.8h88.9v97.2
		c7.9-10,14.1-21.2,19.1-33.2c7.1-17,10.4-35.7,10.4-55.6C1033.6-366.8,1030.2-385.5,1023.2-402.9L1023.2-402.9z M892.8-205.6
		c20.8,0,39.5-3.7,56.9-10.8s32-17,44.4-29.9c3.3-3.7,6.6-7.5,10-11.6v74.7H808.5v-49c8.3,6.2,17.4,11.2,27.4,15.4
		C853.3-209.4,872-205.6,892.8-205.6L892.8-205.6z M1162.3-280c-7.9,0-14.5-8.7-14.5-19.5s6.6-19.5,14.5-19.5s14.5,8.7,14.5,19.5
		S1170.2-280,1162.3-280z M1238.3-280c-7.9,0-14.5-8.7-14.5-19.5s6.6-19.5,14.5-19.5c7.9,0,14.5,8.7,14.5,19.5S1246.2-280,1238.3-280
		z M1360.8-399.2c-7.5-19.1-18.3-35.3-31.6-49.4c-13.7-14.1-29.5-24.9-48.6-32.8c-19.1-7.9-39.5-12-62.3-12c-22.4,0-43.2,4.2-62.3,12
		c-19.1,7.9-35.3,18.7-48.6,32.8c-13.3,14.1-24.1,30.3-31.6,49.4c-7.5,19.1-11.6,39.5-11.6,61.5c0,22,3.7,42.4,11.6,61.5
		c5.4,13.7,12.5,25.7,20.8,36.5v-107.1h213.9V-211c6.6-5,12.9-10,18.3-15.8c13.3-14.1,24.1-30.3,31.6-49.4
		c7.5-19.1,11.6-39.5,11.6-61.5C1372-359.7,1368.7-380.5,1360.8-399.2L1360.8-399.2z M1156.5-194.4c19.1,7.9,39.5,12,62.3,12
		c22.4,0,43.2-4.2,62.3-12c10.8-4.6,20.8-10.4,29.9-17v54h-96.8l-39,78.9v-78.5h-78.1v-82.6c3.3,4.6,7.1,8.7,10.8,12.5
		C1121.2-213.1,1137.4-202.3,1156.5-194.4L1156.5-194.4z"/>
</svg>
