<?xml version="1.0" encoding="UTF-8"?>
<svg width="122px" height="43px" viewBox="0 0 122 43" version="1.1" xmlns="http://www.w3.org/2000/svg" xmlns:xlink="http://www.w3.org/1999/xlink">
    <!-- Generator: Sketch 47.1 (45422) - http://www.bohemiancoding.com/sketch -->
    <title>kooth-beta</title>
    <desc>Created with Sketch.</desc>
    <defs></defs>
    <g id="Page-1" stroke="none" stroke-width="1" fill="none" fill-rule="evenodd">
        <g id="kooth-beta" fill-rule="nonzero" fill="#414141">
            <polygon id="Shape" points="0 0 0 33.9 8.8 33.9 8.8 28 11.1 25.3 16.2 33.9 25.9 33.9 16.9 18.8 25.7 8.8 15.7 8.8 8.8 17.2 8.8 0"></polygon>
            <path d="M78.9,26.1 L78.9,2.4 L87.7,2.4 L87.7,8.8 L93.6,8.8 L93.6,15.9 L87.7,15.9 L87.7,24.4 C87.7,26.2 88.5,26.9 90.1,26.9 C91.3,26.9 92.4,26.6 93.4,26.1 L93.4,33 C91.8,33.9 89.7,34.4 87.3,34.4 C82.1,34.4 78.9,32.1 78.9,26.1" id="Shape"></path>
            <path d="M96.6,0 L105.4,0 L105.4,12.2 C107,10.1 109.4,8.2 112.9,8.2 C118.2,8.2 121.5,11.7 121.5,17.4 L121.5,33.8 L112.7,33.8 L112.7,20.3 C112.7,17.6 111.3,16.1 109.2,16.1 C107.1,16.1 105.5,17.6 105.5,20.3 L105.5,33.9 L96.7,33.9 L96.6,0 L96.6,0 Z" id="Shape"></path>
            <path d="M57.6,33.3 C59.2,34 60.9,34.3 62.8,34.3 C64.7,34.3 66.4,34 68,33.3 C68.9,32.9 69.8,32.4 70.5,31.9 L70.5,36.4 L62.4,36.4 L59.2,43 L59.2,36.4 L52.7,36.4 L52.7,29.5 C53,29.9 53.3,30.2 53.6,30.6 C54.7,31.8 56,32.7 57.6,33.3" id="Shape"></path>
            <path d="M74.8,16.2 C74.2,14.6 73.3,13.2 72.1,12.1 C71,10.9 69.6,10 68,9.3 C66.4,8.6 64.7,8.3 62.8,8.3 C60.9,8.3 59.2,8.6 57.6,9.3 C56,10 54.7,10.9 53.5,12 C52.4,13.2 51.5,14.5 50.8,16.1 C50.2,17.7 49.8,19.4 49.8,21.2 C49.8,23 50.1,24.8 50.8,26.3 C51.3,27.4 51.8,28.5 52.6,29.4 L52.6,20.4 L70.5,20.4 L70.5,31.7 C71.1,31.3 71.6,30.9 72.1,30.4 C73.2,29.2 74.1,27.9 74.8,26.3 C75.4,24.7 75.8,23 75.8,21.2 C75.7,19.5 75.4,17.8 74.8,16.2" id="Shape"></path>
            <path d="M64.5,26.2 C63.8,26.2 63.3,25.5 63.3,24.6 C63.3,23.7 63.8,23 64.5,23 C65.2,23 65.7,23.7 65.7,24.6 C65.7,25.4 65.1,26.2 64.5,26.2" id="Shape"></path>
            <path d="M58.1,26.2 C57.4,26.2 56.9,25.5 56.9,24.6 C56.9,23.7 57.4,23 58.1,23 C58.8,23 59.3,23.7 59.3,24.6 C59.3,25.4 58.8,26.2 58.1,26.2" id="Shape"></path>
            <path d="M35.8,32.2 C37.4,32.2 38.9,31.9 40.2,31.4 C41.5,30.8 42.7,30.1 43.6,29.1 C43.9,28.8 44.1,28.5 44.4,28.2 L44.4,34 L29.3,34 L29.3,30.2 C29.9,30.7 30.7,31.1 31.4,31.4 C32.7,31.9 34.2,32.2 35.8,32.2" id="Shape"></path>
            <path d="M45.9,16.9 C45.4,15.6 44.6,14.4 43.7,13.4 C42.7,12.4 41.6,11.6 40.3,11.1 C39,10.5 37.5,10.3 35.9,10.3 C34.3,10.3 32.8,10.6 31.5,11.1 C30.2,11.7 29,12.4 28.1,13.4 C27.1,14.4 26.4,15.5 25.9,16.9 C25.4,18.2 25.1,19.7 25.1,21.2 C25.1,22.8 25.4,24.2 25.9,25.5 C26.4,26.8 27.2,28 28.1,29 C28.5,29.4 28.9,29.8 29.4,30.1 L29.4,20.5 L34.9,20.5 L34.9,15 L37.7,20.6 L44.6,20.6 L44.6,28.2 C45.2,27.4 45.7,26.6 46.1,25.6 C46.6,24.3 46.9,22.8 46.9,21.3 C46.7,19.7 46.4,18.2 45.9,16.9" id="Shape"></path>
            <path d="M34.1,22.6 C34.7,22.6 35.1,23.2 35.1,24 C35.1,24.8 34.6,25.4 34.1,25.4 C33.5,25.4 33.1,24.8 33.1,24 C33,23.2 33.5,22.6 34.1,22.6" id="Shape"></path>
            <path d="M39.3,22.6 C39.9,22.6 40.3,23.2 40.3,24 C40.3,24.8 39.8,25.4 39.3,25.4 C38.7,25.4 38.3,24.8 38.3,24 C38.2,23.2 38.7,22.6 39.3,22.6" id="Shape"></path>
        </g>
    </g>
</svg>